<svg width="185" height="31" viewBox="0 0 185 31" fill="none" xmlns="http://www.w3.org/2000/svg">
<path d="M3.92 30V14.92H0.12V9.68H5.92L3.92 11.52V8.76C3.92 5.96 4.65333 3.86667 6.12 2.48C7.58667 1.09333 9.8 0.4 12.76 0.4C13.4267 0.4 14.1333 0.439999 14.88 0.519998C15.6267 0.599999 16.2933 0.759999 16.88 0.999999V6.44C16.5067 6.30666 16.08 6.21333 15.6 6.16C15.12 6.08 14.6533 6.04 14.2 6.04C13.6667 6.04 13.1467 6.13333 12.64 6.32C12.16 6.48 11.76 6.77333 11.44 7.2C11.1467 7.62667 11 8.21333 11 8.96V10.76L10 9.68H15.92V14.92H11.04V30H3.92ZM26.1766 30.44C24.4166 30.44 22.8699 30.0267 21.5366 29.2C20.2032 28.3467 19.1499 27.12 18.3766 25.52C17.6299 23.92 17.2566 22.0267 17.2566 19.84C17.2566 17.6267 17.6299 15.7333 18.3766 14.16C19.1499 12.56 20.2032 11.3467 21.5366 10.52C22.8699 9.66666 24.4166 9.24 26.1766 9.24C27.7499 9.24 29.1632 9.61333 30.4166 10.36C31.6966 11.1067 32.5366 12.08 32.9366 13.28H32.5366L32.9766 9.68H39.8166C39.7366 10.5867 39.6566 11.5067 39.5766 12.44C39.5232 13.3733 39.4966 14.2933 39.4966 15.2V30H32.4566L32.3766 26.56H32.8566C32.4566 27.7333 31.6166 28.68 30.3366 29.4C29.0832 30.0933 27.6966 30.44 26.1766 30.44ZM28.4566 25.16C29.6566 25.16 30.6299 24.7467 31.3766 23.92C32.1232 23.0667 32.4966 21.7067 32.4966 19.84C32.4966 17.9733 32.1232 16.6267 31.3766 15.8C30.6299 14.9467 29.6566 14.52 28.4566 14.52C27.2566 14.52 26.2832 14.9467 25.5366 15.8C24.7899 16.6267 24.4166 17.9733 24.4166 19.84C24.4166 21.7067 24.7766 23.0667 25.4966 23.92C26.2432 24.7467 27.2299 25.16 28.4566 25.16ZM54.1988 30.44C51.9588 30.44 49.9988 30.0133 48.3188 29.16C46.6388 28.3067 45.3321 27.0933 44.3988 25.52C43.4654 23.92 42.9988 22.0133 42.9988 19.8C42.9988 17.5867 43.4654 15.6933 44.3988 14.12C45.3321 12.5467 46.6388 11.3467 48.3188 10.52C49.9988 9.66666 51.9588 9.24 54.1988 9.24C55.5854 9.24 56.9454 9.42667 58.2788 9.8C59.6121 10.1733 60.6921 10.7067 61.5188 11.4L59.5188 16.24C58.8788 15.7067 58.1454 15.3067 57.3188 15.04C56.5188 14.7467 55.7321 14.6 54.9588 14.6C53.4921 14.6 52.3454 15.04 51.5188 15.92C50.7188 16.8 50.3188 18.0933 50.3188 19.8C50.3188 21.5067 50.7188 22.8133 51.5188 23.72C52.3454 24.6 53.4921 25.04 54.9588 25.04C55.7054 25.04 56.4921 24.9067 57.3188 24.64C58.1454 24.3467 58.8788 23.9467 59.5188 23.44L61.5188 28.28C60.6654 28.9467 59.5721 29.48 58.2388 29.88C56.9321 30.2533 55.5854 30.44 54.1988 30.44ZM74.795 30.44C71.115 30.44 68.2483 29.4933 66.195 27.6C64.1683 25.7067 63.155 23.1067 63.155 19.8C63.155 17.7467 63.5817 15.92 64.435 14.32C65.2883 12.72 66.4883 11.48 68.035 10.6C69.5817 9.69333 71.395 9.24 73.475 9.24C75.5283 9.24 77.235 9.69333 78.595 10.6C79.9817 11.48 81.0217 12.7067 81.715 14.28C82.4083 15.8267 82.755 17.6267 82.755 19.68V21.2H69.115V17.84H77.515L76.835 18.4C76.835 16.88 76.5417 15.76 75.955 15.04C75.395 14.2933 74.595 13.92 73.555 13.92C72.355 13.92 71.435 14.3733 70.795 15.28C70.1817 16.16 69.875 17.4933 69.875 19.28V20C69.875 21.7867 70.315 23.0933 71.195 23.92C72.075 24.7467 73.3417 25.16 74.995 25.16C76.0617 25.16 77.0617 25.04 77.995 24.8C78.955 24.56 79.8617 24.1733 80.715 23.64L82.555 28.28C81.5417 28.9733 80.3683 29.5067 79.035 29.88C77.7017 30.2533 76.2883 30.44 74.795 30.44ZM99.4653 30.44C97.9186 30.44 96.5053 30.0667 95.2253 29.32C93.972 28.5733 93.1453 27.5867 92.7453 26.36H93.1853V30H86.1453V0.559998H93.2653V13.12H92.7853C93.2386 11.9467 94.0786 11.0133 95.3053 10.32C96.5586 9.6 97.9453 9.24 99.4653 9.24C101.225 9.24 102.772 9.66666 104.105 10.52C105.465 11.3733 106.519 12.6 107.265 14.2C108.039 15.8 108.425 17.6933 108.425 19.88C108.425 22.0933 108.039 23.9867 107.265 25.56C106.519 27.1333 105.465 28.3467 104.105 29.2C102.772 30.0267 101.225 30.44 99.4653 30.44ZM97.2253 25.16C98.3986 25.16 99.3586 24.7467 100.105 23.92C100.879 23.0933 101.265 21.7467 101.265 19.88C101.265 18.0133 100.879 16.6533 100.105 15.8C99.3586 14.9467 98.3986 14.52 97.2253 14.52C96.0253 14.52 95.052 14.9467 94.3053 15.8C93.5586 16.6267 93.1853 17.9733 93.1853 19.84C93.1853 21.7067 93.5586 23.0667 94.3053 23.92C95.052 24.7467 96.0253 25.16 97.2253 25.16ZM122.048 30.44C119.781 30.44 117.821 30.0133 116.168 29.16C114.514 28.3067 113.234 27.0933 112.327 25.52C111.421 23.92 110.968 22.0267 110.968 19.84C110.968 17.6267 111.421 15.7333 112.327 14.16C113.234 12.5867 114.514 11.3733 116.168 10.52C117.821 9.66666 119.781 9.24 122.048 9.24C124.288 9.24 126.234 9.66666 127.888 10.52C129.541 11.3733 130.821 12.6 131.727 14.2C132.634 15.7733 133.088 17.6533 133.088 19.84C133.088 22 132.634 23.88 131.727 25.48C130.821 27.08 129.541 28.3067 127.888 29.16C126.234 30.0133 124.288 30.44 122.048 30.44ZM122.048 25.16C123.221 25.16 124.154 24.7467 124.848 23.92C125.541 23.0667 125.888 21.7067 125.888 19.84C125.888 17.9733 125.541 16.6267 124.848 15.8C124.154 14.9467 123.221 14.52 122.048 14.52C120.848 14.52 119.901 14.9467 119.208 15.8C118.514 16.6267 118.168 17.9733 118.168 19.84C118.168 21.7067 118.514 23.0667 119.208 23.92C119.901 24.7467 120.848 25.16 122.048 25.16ZM146.735 30.44C144.468 30.44 142.508 30.0133 140.855 29.16C139.202 28.3067 137.922 27.0933 137.015 25.52C136.108 23.92 135.655 22.0267 135.655 19.84C135.655 17.6267 136.108 15.7333 137.015 14.16C137.922 12.5867 139.202 11.3733 140.855 10.52C142.508 9.66666 144.468 9.24 146.735 9.24C148.975 9.24 150.922 9.66666 152.575 10.52C154.228 11.3733 155.508 12.6 156.415 14.2C157.322 15.7733 157.775 17.6533 157.775 19.84C157.775 22 157.322 23.88 156.415 25.48C155.508 27.08 154.228 28.3067 152.575 29.16C150.922 30.0133 148.975 30.44 146.735 30.44ZM146.735 25.16C147.908 25.16 148.842 24.7467 149.535 23.92C150.228 23.0667 150.575 21.7067 150.575 19.84C150.575 17.9733 150.228 16.6267 149.535 15.8C148.842 14.9467 147.908 14.52 146.735 14.52C145.535 14.52 144.588 14.9467 143.895 15.8C143.202 16.6267 142.855 17.9733 142.855 19.84C142.855 21.7067 143.202 23.0667 143.895 23.92C144.588 24.7467 145.535 25.16 146.735 25.16ZM161.263 30V0.559998H168.383V17.88H168.463L175.263 9.68H183.663L174.463 20.56V18.12L184.023 30H175.423L168.463 21.48H168.383V30H161.263Z" fill="#5571FF"/>
</svg>
