<svg width="137" height="39" viewBox="0 0 137 39" fill="none" xmlns="http://www.w3.org/2000/svg">
<path d="M26.84 13.92V28.2C25.32 28.8933 23.6133 29.4267 21.72 29.8C19.8533 30.1733 17.9333 30.36 15.96 30.36C12.8667 30.36 10.1733 29.7733 7.88 28.6C5.61333 27.4267 3.86667 25.7467 2.64 23.56C1.41333 21.3467 0.8 18.7333 0.8 15.72C0.8 12.7867 1.41333 10.2267 2.64 8.04C3.86667 5.82667 5.6 4.13333 7.84 2.96C10.08 1.76 12.6933 1.16 15.68 1.16C17.7333 1.16 19.6667 1.42667 21.48 1.96C23.32 2.49333 24.8133 3.22666 25.96 4.16L23.6 9.48C22.2933 8.62667 21.0267 8.01333 19.8 7.64C18.6 7.24 17.3067 7.04 15.92 7.04C13.3867 7.04 11.4933 7.76 10.24 9.2C9.01333 10.6133 8.4 12.7867 8.4 15.72C8.4 18.76 9.04 21.0133 10.32 22.48C11.6267 23.9467 13.6267 24.68 16.32 24.68C17.5733 24.68 18.8267 24.5467 20.08 24.28V19H15.12V13.92H26.84ZM102.292 9.68V28.72C102.292 32.0533 101.292 34.5867 99.2922 36.32C97.2922 38.08 94.3589 38.96 90.4922 38.96C87.1855 38.96 84.3189 38.3733 81.8922 37.2L82.9722 31.92C84.1722 32.4533 85.3989 32.8667 86.6522 33.16C87.9322 33.48 89.1322 33.64 90.2522 33.64C91.9055 33.64 93.1189 33.28 93.8922 32.56C94.6922 31.8667 95.0922 30.7733 95.0922 29.28V26.28C94.4255 27.16 93.5189 27.9067 92.3722 28.52C91.2522 29.1333 90.0522 29.44 88.7722 29.44C87.0389 29.44 85.4789 29.0267 84.0922 28.2C82.7322 27.3467 81.6655 26.16 80.8922 24.64C80.1189 23.0933 79.7322 21.3067 79.7322 19.28C79.7322 17.28 80.1189 15.52 80.8922 14C81.6655 12.4533 82.7322 11.2533 84.0922 10.4C85.4789 9.54667 87.0389 9.12 88.7722 9.12C90.1322 9.12 91.3722 9.4 92.4922 9.96C93.6122 10.52 94.4789 11.28 95.0922 12.24V9.68H102.292ZM91.0122 24.04C92.2922 24.04 93.2922 23.6267 94.0122 22.8C94.7322 21.9467 95.0922 20.7733 95.0922 19.28C95.0922 17.84 94.7322 16.7067 94.0122 15.88C93.2922 15.0267 92.2922 14.6 91.0122 14.6C89.7322 14.6 88.7189 15.0133 87.9722 15.84C87.2522 16.6667 86.8922 17.8133 86.8922 19.28C86.8922 20.7467 87.2655 21.9067 88.0122 22.76C88.7589 23.6133 89.7589 24.04 91.0122 24.04Z" fill="#4285F4"/>
<path d="M41.4391 30.32C39.1724 30.32 37.1991 29.8933 35.5191 29.04C33.8391 28.1867 32.5457 26.96 31.6391 25.36C30.7324 23.76 30.2791 21.88 30.2791 19.72C30.2791 17.56 30.7324 15.68 31.6391 14.08C32.5457 12.48 33.8391 11.2533 35.5191 10.4C37.1991 9.54667 39.1724 9.12 41.4391 9.12C43.6791 9.12 45.6257 9.56 47.2791 10.44C48.9591 11.2933 50.2524 12.52 51.1591 14.12C52.0657 15.6933 52.5191 17.56 52.5191 19.72C52.5191 21.88 52.0657 23.76 51.1591 25.36C50.2524 26.9333 48.9591 28.16 47.2791 29.04C45.6257 29.8933 43.6791 30.32 41.4391 30.32ZM41.4391 24.92C44.0524 24.92 45.3591 23.1867 45.3591 19.72C45.3591 17.96 45.0257 16.6667 44.3591 15.84C43.7191 14.9867 42.7457 14.56 41.4391 14.56C40.1057 14.56 39.1057 14.9867 38.4391 15.84C37.7724 16.6667 37.4391 17.96 37.4391 19.72C37.4391 21.5067 37.7724 22.8267 38.4391 23.68C39.1057 24.5067 40.1057 24.92 41.4391 24.92ZM136.873 20.56H124.113C124.246 22.1333 124.7 23.2667 125.473 23.96C126.246 24.6533 127.38 25 128.873 25C129.886 25 130.9 24.84 131.913 24.52C132.926 24.1733 133.846 23.7067 134.673 23.12L136.513 27.92C135.5 28.6667 134.273 29.2533 132.833 29.68C131.393 30.1067 129.953 30.32 128.513 30.32C126.193 30.32 124.18 29.8933 122.473 29.04C120.766 28.1867 119.46 26.9733 118.553 25.4C117.646 23.8 117.193 21.92 117.193 19.76C117.193 17.7067 117.62 15.88 118.473 14.28C119.353 12.6533 120.553 11.3867 122.073 10.48C123.62 9.57333 125.38 9.12 127.353 9.12C129.273 9.12 130.953 9.54667 132.393 10.4C133.833 11.2533 134.94 12.48 135.713 14.08C136.486 15.6533 136.873 17.4933 136.873 19.6V20.56ZM127.553 14.08C125.766 14.08 124.646 15.12 124.193 17.2H130.673C130.406 15.12 129.366 14.08 127.553 14.08Z" fill="#EA4335"/>
<path d="M66.1656 30.32C63.899 30.32 61.9256 29.8933 60.2456 29.04C58.5656 28.1867 57.2723 26.96 56.3656 25.36C55.459 23.76 55.0056 21.88 55.0056 19.72C55.0056 17.56 55.459 15.68 56.3656 14.08C57.2723 12.48 58.5656 11.2533 60.2456 10.4C61.9256 9.54667 63.899 9.12 66.1656 9.12C68.4056 9.12 70.3523 9.56 72.0056 10.44C73.6856 11.2933 74.979 12.52 75.8856 14.12C76.7923 15.6933 77.2456 17.56 77.2456 19.72C77.2456 21.88 76.7923 23.76 75.8856 25.36C74.979 26.9333 73.6856 28.16 72.0056 29.04C70.3523 29.8933 68.4056 30.32 66.1656 30.32ZM66.1656 24.92C68.779 24.92 70.0856 23.1867 70.0856 19.72C70.0856 17.96 69.7523 16.6667 69.0856 15.84C68.4456 14.9867 67.4723 14.56 66.1656 14.56C64.8323 14.56 63.8323 14.9867 63.1656 15.84C62.499 16.6667 62.1656 17.96 62.1656 19.72C62.1656 21.5067 62.499 22.8267 63.1656 23.68C63.8323 24.5067 64.8323 24.92 66.1656 24.92Z" fill="#FBBC03"/>
<path d="M106.551 0.559998H113.791V30H106.551V0.559998Z" fill="#31C65B"/>
</svg>
