<svg width="470" height="172" viewBox="0 0 470 172" fill="none" xmlns="http://www.w3.org/2000/svg">
<path d="M441.51 48.1059C450.725 52.4449 462.176 106.611 469.302 148.192C471.366 160.235 462.021 171.109 449.802 171.132L3.15424 171.992C1.04248 171.996 -0.561829 169.898 0.303192 167.971C0.487457 167.561 0.589752 167.205 0.661957 166.761C1.18195 163.563 3.0358 160.026 8.28879 151.349C9.15778 149.914 10.1985 148.57 11.4686 147.474C22.3376 138.091 31.93 140.04 35.5219 142.342C36.6245 143.111 39.5469 145.109 43.4448 147.683C44.9603 148.684 46.6105 149.621 48.4267 149.614C53.8407 149.594 57.448 144.126 58.6918 140.973C59.8699 138.54 63.4043 129.749 68.1168 114.053C71.3935 100.412 76.4895 101.636 79.4861 104.787C80.3705 105.717 81.1353 106.757 82.0425 107.665C82.7972 108.42 83.7658 109.383 84.8885 110.489C87.2725 112.838 90.6758 114.996 93.3091 112.931C97.2018 109.878 99.7519 102.2 100.712 97.6276C103.461 87.1333 109.823 63.8634 113.278 54.7379C117.448 46.6645 122.949 49.1861 125.975 52.1918C126.72 52.9323 127.279 53.8306 127.789 54.7491C131.84 62.0415 139.296 75.3857 141.946 79.8329C144.774 84.5782 148.099 84.5478 149.408 83.9394C150.408 83.423 152.822 81.8768 155.451 79.4121C156.419 78.5042 157.385 77.5267 158.647 77.1168C160.528 76.5061 162.344 76.871 163.599 77.4014C164.383 77.7327 165.023 78.3133 165.621 78.9191C166.248 79.554 167.041 80.3551 167.888 81.2075C169.595 82.9265 172.315 84.6296 174.106 82.9975C174.615 82.5338 175.237 81.9181 175.62 81.3459C177.921 77.9053 181.524 65.3056 183.181 58.8444C183.729 56.8047 185.289 51.9014 187.63 46.4988C188.545 44.386 189.785 41.8537 192.085 41.7404C198.805 41.4092 203.011 63.5307 204.387 76.1827C205.958 89.2626 209.178 116.7 209.492 121.81C209.852 127.669 211.534 133.529 213.022 139.388C213.29 140.442 213.949 142.312 214.666 143.13C217.163 145.975 219.575 140.413 221.532 137.173C224.26 132.657 227.501 129.305 229.717 127.439C230.604 126.692 231.618 126.131 232.662 125.628C237.695 123.2 246.275 118.699 249.941 115.422C253.068 112.628 256.393 112.686 258.545 113.344C259.666 113.687 260.574 114.475 261.57 115.094C263.219 116.119 265.818 117.247 268.791 117.247C274.446 117.247 278.74 107.818 280.18 103.103C282.405 97.9318 287.249 86.4945 288.819 82.1143C290.578 77.2095 292.652 73.037 296.453 67.9568C297.364 66.7396 298.415 65.5919 299.757 64.8765C305.019 62.0694 308.802 65.9657 311.775 69.7521C312.975 71.2807 314.29 72.9082 316.184 73.3422C319.42 74.0834 321.765 71.3231 323.828 67.5391C324.329 66.6203 324.873 65.732 325.346 64.7984C328.551 58.474 333.383 39.7968 335.552 30.5555C336.599 27.2095 339.872 17.4149 344.584 5.00423C351.182 -7.04137 358.591 5.4605 361.471 13.2171C367.754 30.4034 380.87 65.871 383.07 70.2512C385.819 75.7265 387.389 76.1827 392.102 76.1827C396.454 76.4987 403.474 68.4023 407.659 62.6698C408.833 61.0617 410.11 59.427 411.966 58.7055C412.34 58.5597 412.727 58.4422 413.112 58.3698C414.859 58.041 416.141 59.6371 417.439 60.8519C420.979 64.165 423.682 62.5664 424.697 61.1258C427.4 58.106 432.745 52.5154 436.404 49.7936C437.915 48.6696 439.806 47.3037 441.51 48.1059Z" fill="url(#paint0_linear_1_4299)"/>
<defs>
<linearGradient id="paint0_linear_1_4299" x1="236" y1="0" x2="236" y2="172" gradientUnits="userSpaceOnUse">
<stop stop-color="#A5DDFF"/>
<stop offset="1" stop-color="#D3EFFF" stop-opacity="0"/>
</linearGradient>
</defs>
</svg>
