<svg width="110" height="115" viewBox="0 0 110 115" fill="none" xmlns="http://www.w3.org/2000/svg">
<g id="1">
<rect id="Background" width="110" height="115" rx="20" fill="white"/>
<g id="Insta">
<path id="Vector" d="M72.0986 25.4682C76.5488 25.481 80.813 27.189 83.9598 30.2193C87.1066 33.2495 88.8803 37.3558 88.8936 41.6412V73.9838C88.8803 78.2692 87.1066 82.3755 83.9598 85.4057C80.813 88.436 76.5488 90.144 72.0986 90.1568H38.512C34.0618 90.144 29.7976 88.436 26.6508 85.4057C23.504 82.3755 21.7302 78.2692 21.7169 73.9838V41.6412C21.7302 37.3558 23.504 33.2495 26.6508 30.2193C29.7976 27.189 34.0618 25.481 38.512 25.4682H72.0986ZM72.0986 19H38.512C25.5801 19 15 29.1883 15 41.6412V73.9838C15 86.4367 25.5801 96.625 38.512 96.625H72.0986C85.0304 96.625 95.6106 86.4367 95.6106 73.9838V41.6412C95.6106 29.1883 85.0304 19 72.0986 19Z" fill="#FA6488"/>
<path id="Vector_2" d="M77.1364 41.6409C76.14 41.6409 75.1659 41.3564 74.3374 40.8233C73.5089 40.2902 72.8631 39.5325 72.4818 38.646C72.1004 37.7595 72.0007 36.784 72.1951 35.8429C72.3895 34.9018 72.8693 34.0373 73.5739 33.3588C74.2785 32.6803 75.1762 32.2182 76.1535 32.031C77.1308 31.8438 78.1438 31.9399 79.0644 32.3071C79.985 32.6743 80.7719 33.2961 81.3255 34.094C81.8791 34.8918 82.1746 35.8298 82.1746 36.7894C82.176 37.4269 82.0467 38.0584 81.794 38.6476C81.5413 39.2368 81.1702 39.7722 80.7021 40.223C80.234 40.6738 79.678 41.0311 79.0661 41.2744C78.4542 41.5177 77.7984 41.6423 77.1364 41.6409ZM55.305 44.8741C57.9623 44.8741 60.56 45.6329 62.7695 47.0546C64.979 48.4763 66.701 50.4969 67.718 52.861C68.7349 55.2252 69.0009 57.8266 68.4825 60.3363C67.9641 62.8461 66.6845 65.1514 64.8055 66.9608C62.9264 68.7702 60.5324 70.0025 57.9262 70.5017C55.3199 71.0009 52.6184 70.7447 50.1634 69.7654C47.7083 68.7862 45.61 67.1279 44.1336 65.0002C42.6573 62.8726 41.8693 60.3711 41.8693 57.8122C41.8731 54.382 43.2899 51.0932 45.8087 48.6677C48.3276 46.2421 51.7428 44.8778 55.305 44.8741ZM55.305 38.406C51.3192 38.406 47.4229 39.5441 44.1088 41.6765C40.7947 43.8089 38.2117 46.8397 36.6864 50.3858C35.1611 53.9318 34.762 57.8337 35.5396 61.5982C36.3172 65.3626 38.2365 68.8205 41.0549 71.5345C43.8733 74.2485 47.4642 76.0968 51.3734 76.8456C55.2826 77.5944 59.3347 77.2101 63.0171 75.7413C66.6995 74.2724 69.8469 71.7851 72.0613 68.5938C74.2757 65.4024 75.4576 61.6504 75.4576 57.8122C75.4576 52.6654 73.3344 47.7293 69.5551 44.0899C65.7757 40.4505 60.6498 38.406 55.305 38.406Z" fill="#FA6488"/>
</g>
</g>
</svg>
