<svg width="36" height="33" viewBox="0 0 36 33" fill="none" xmlns="http://www.w3.org/2000/svg">
<path d="M29.7345 30.829L34.6927 2.26994C34.8268 1.49771 34.0607 0.878437 33.3337 1.17134L1.98107 13.8035C1.19454 14.1204 1.13464 15.2109 1.88172 15.6121L10.7101 20.3525C10.9649 20.4893 11.148 20.7296 11.2121 21.0116L12.976 28.7607C13.1406 29.4837 14.007 29.7824 14.5822 29.3145L19.3726 25.4172C19.7385 25.1195 20.2627 25.118 20.6303 25.4135L28.1227 31.4373C28.7163 31.9146 29.6043 31.5795 29.7345 30.829Z" stroke="#5956E9" stroke-width="2"/>
<path d="M26.3208 7.52535L9.3178 18.5187C9.12982 18.6402 9.04553 18.8719 9.11145 19.0858L12.212 29.1472C12.2767 29.3569 12.4705 29.5 12.6899 29.5H13.0884C13.3557 29.5 13.5757 29.2899 13.5879 29.0229L13.9718 20.6513C13.9778 20.5211 14.0343 20.3984 14.1294 20.3093L26.9342 8.31008C27.3789 7.89329 26.8326 7.19441 26.3208 7.52535Z" fill="#5956E9"/>
</svg>
