<svg width="126" height="133" viewBox="0 0 126 133" fill="none" xmlns="http://www.w3.org/2000/svg">
<g id="5">
<rect id="Background" width="126" height="133" rx="20" fill="white"/>
<g id="Pintrest">
<path id="Vector" d="M63.0083 30C42.5711 30 26 46.5637 26 66.9917C26 82.1352 35.1199 95.1484 48.1554 100.879C48.0563 98.3026 48.1389 95.1979 48.7997 92.3905C49.5102 89.385 53.5579 72.2267 53.5579 72.2267C53.5579 72.2267 52.3684 69.8652 52.3684 66.3807C52.3684 60.898 55.5405 56.8025 59.5057 56.8025C62.8761 56.8025 64.4952 59.3292 64.4952 62.3513C64.4952 65.7367 62.3309 70.79 61.2239 75.48C60.2987 79.4104 63.19 82.5976 67.0726 82.5976C74.0777 82.5976 78.8029 73.5974 78.8029 62.9293C78.8029 54.8208 73.3342 48.7601 63.4048 48.7601C52.1866 48.7601 45.1815 57.1328 45.1815 66.4798C45.1815 69.7001 46.1398 71.979 47.6267 73.7295C48.3041 74.5387 48.4032 74.869 48.1554 75.7938C47.9737 76.4709 47.5771 78.1058 47.3954 78.7663C47.1476 79.7076 46.3876 80.0379 45.545 79.6911C40.3737 77.5773 37.9616 71.9295 37.9616 65.555C37.9616 55.052 46.8337 42.4517 64.4126 42.4517C78.5385 42.4517 87.8401 52.674 87.8401 63.6394C87.8401 78.1553 79.7611 88.9886 67.8656 88.9886C63.8674 88.9886 60.117 86.8253 58.8283 84.3812C58.8283 84.3812 56.6805 92.9025 56.2179 94.5539C55.4414 97.4108 53.9049 100.251 52.5006 102.481C55.9071 103.485 59.44 103.997 62.9917 104C83.4289 104 100 87.4363 100 67.0083C100 46.5802 83.4454 30 63.0083 30Z" fill="#FF5555"/>
</g>
</g>
</svg>
