<svg width="96" height="101" viewBox="0 0 96 101" fill="none" xmlns="http://www.w3.org/2000/svg">
<g id="4">
<rect id="Background" width="96" height="101" rx="20" fill="white"/>
<path id="Vector" d="M64.7815 43.52C64.7815 40.5904 62.5832 38.2337 59.8669 38.2337C56.1875 38.0651 52.4351 38 48.6003 38H47.4048C43.5793 38 39.8203 38.0651 36.1409 38.2344C33.4312 38.2344 31.2329 40.6041 31.2329 43.5337C31.0668 45.8507 30.9964 48.1683 31.0004 50.486C30.9938 52.8036 31.069 55.1234 31.2262 57.4454C31.2262 60.375 33.4245 62.7513 36.1343 62.7513C39.9996 62.9271 43.9645 63.0052 47.9959 62.9987C52.0339 63.0117 55.9878 62.9292 59.8576 62.7513C62.5739 62.7513 64.7722 60.375 64.7722 57.4454C64.9316 55.1213 65.0047 52.8036 64.9981 50.4795C65.0131 48.1618 64.9409 45.842 64.7815 43.52ZM44.7482 56.8725V44.0799L54.3784 50.473L44.7482 56.8725Z" fill="#FF2525"/>
</g>
</svg>
