<svg width="144" height="151" viewBox="0 0 144 151" fill="none" xmlns="http://www.w3.org/2000/svg">
<g id="6">
<rect id="Background" width="144" height="151" rx="20" fill="white"/>
<g id="Fb">
<path id="Vector" fill-rule="evenodd" clip-rule="evenodd" d="M116 76.134C116 52.8188 96.3682 33.9141 72.1562 33.9141C47.9443 33.9141 28.3125 52.8188 28.3125 76.134C28.3125 97.2062 44.3429 114.673 65.3057 117.843V88.3419H54.1705V76.134H65.3057V66.8324C65.3057 56.2529 71.8529 50.4043 81.8665 50.4043C86.6638 50.4043 91.6824 51.2299 91.6824 51.2299V61.6209H86.151C80.7077 61.6209 79.0049 64.8741 79.0049 68.2177V76.134H91.1637L89.222 88.3419H79.0068V117.847C99.9696 114.678 116 97.2119 116 76.134Z" fill="#545AEB"/>
</g>
</g>
</svg>
