<svg width="38" height="46" viewBox="0 0 38 46" fill="none" xmlns="http://www.w3.org/2000/svg">
<path d="M25.796 44.4478H5.73088C3.11756 44.4478 1.00586 42.317 1.00586 39.6882V11.9549C1.00586 9.32611 3.11756 7.18713 5.73088 7.18713H25.8041C28.4094 7.18713 30.5291 9.31795 30.5291 11.9549V39.6882C30.5211 42.317 28.4094 44.4478 25.796 44.4478Z" stroke="#5956E9" stroke-width="2" stroke-miterlimit="10"/>
<path d="M29.8331 14.2082H26.9609C24.8573 14.2082 23.1582 12.4937 23.1582 10.3711V7.38306" stroke="#5956E9" stroke-width="2" stroke-miterlimit="10"/>
<path d="M10.6738 1.44775H29.0723C32.9801 1.44775 36.1517 4.64806 36.1517 8.59129V38.4717" stroke="#5956E9" stroke-width="2" stroke-miterlimit="10" stroke-linecap="round"/>
<path d="M7.70508 24.5112H23.2637" stroke="#5956E9" stroke-width="2" stroke-miterlimit="10" stroke-linecap="round"/>
<path d="M7.70508 29.8668H23.2637" stroke="#5956E9" stroke-width="2" stroke-miterlimit="10" stroke-linecap="round"/>
<path d="M7.70508 35.2551H23.2637" stroke="#5956E9" stroke-width="2" stroke-miterlimit="10" stroke-linecap="round"/>
</svg>
