<svg width="110" height="115" viewBox="0 0 110 115" fill="none" xmlns="http://www.w3.org/2000/svg">
<g id="2">
<rect id="Background" width="110" height="115" rx="20" fill="white"/>
<g id="Twiter">
<path id="Vector" d="M88.0001 38.3902C85.5208 39.4674 82.8976 40.1772 80.2134 40.4969C83.0343 38.8451 85.1557 36.2209 86.1797 33.1164C83.5127 34.676 80.5997 35.7702 77.5655 36.3523C76.2878 35.0132 74.7512 33.948 73.049 33.2213C71.3468 32.4946 69.5147 32.1216 67.6638 32.125C60.1704 32.125 54.1063 38.101 54.1063 45.4677C54.101 46.4924 54.2184 47.514 54.4561 48.5108C49.0828 48.2589 43.8212 46.8882 39.008 44.4863C34.1948 42.0844 29.9359 38.7043 26.5039 34.5622C25.2999 36.592 24.6631 38.908 24.6602 41.268C24.6602 45.8946 27.074 49.9841 30.7188 52.38C28.5593 52.3288 26.4441 51.7572 24.5528 50.7139V50.8791C24.5528 57.3508 29.2344 62.7347 35.4307 63.9602C34.2655 64.2708 33.0648 64.4282 31.8589 64.4284C31.0032 64.4299 30.1495 64.3468 29.3101 64.1805C31.0327 69.4818 36.0462 73.3373 41.985 73.4474C37.1593 77.1665 31.2346 79.1766 25.1421 79.1618C24.0607 79.1602 22.9802 79.0958 21.9062 78.969C28.1042 82.9267 35.3088 85.0201 42.6625 85.0001C67.6349 85.0001 81.2778 64.6625 81.2778 47.0237C81.2778 46.4454 81.2626 45.867 81.2351 45.3025C83.8831 43.4189 86.174 41.0781 88.0001 38.3902Z" fill="#4CCEEB"/>
</g>
</g>
</svg>
