<svg width="49" height="50" viewBox="0 0 49 50" fill="none" xmlns="http://www.w3.org/2000/svg">
<path d="M22.9029 7.44299C23.4651 5.98007 25.5349 5.98007 26.0971 7.44299C27.0011 9.79511 29.9364 10.5816 31.8954 8.99662C33.1137 8.01082 34.9062 9.04569 34.6617 10.5937C34.2685 13.0827 36.4173 15.2315 38.9063 14.8383C40.4543 14.5938 41.4892 16.3863 40.5034 17.6046C38.9184 19.5636 39.7049 22.4989 42.057 23.4029C43.5199 23.9651 43.5199 26.0349 42.057 26.5971C39.7049 27.5011 38.9184 30.4364 40.5034 32.3954C41.4892 33.6137 40.4543 35.4062 38.9063 35.1617C36.4173 34.7685 34.2685 36.9173 34.6617 39.4063C34.9062 40.9543 33.1137 41.9892 31.8954 41.0034C29.9364 39.4184 27.0011 40.2049 26.0971 42.557C25.5349 44.0199 23.4651 44.0199 22.9029 42.557C21.9989 40.2049 19.0636 39.4184 17.1046 41.0034C15.8863 41.9892 14.0938 40.9543 14.3383 39.4063C14.7315 36.9173 12.5827 34.7685 10.0937 35.1617C8.54569 35.4062 7.51082 33.6137 8.49662 32.3954C10.0816 30.4364 9.29511 27.5011 6.94299 26.5971C5.48007 26.0349 5.48007 23.9651 6.94299 23.4029C9.29511 22.4989 10.0816 19.5636 8.49662 17.6046C7.51082 16.3863 8.54569 14.5938 10.0937 14.8383C12.5827 15.2315 14.7315 13.0827 14.3383 10.5937C14.0938 9.04569 15.8863 8.01082 17.1046 8.99662C19.0636 10.5816 21.9989 9.79511 22.9029 7.44299Z" stroke="#5956E9" stroke-width="2"/>
<circle cx="24.5" cy="25" r="11.5" stroke="#5956E9" stroke-width="2"/>
</svg>
