<svg width="96" height="101" viewBox="0 0 96 101" fill="none" xmlns="http://www.w3.org/2000/svg">
<g id="3">
<rect id="Background" width="96" height="101" rx="20" fill="white"/>
<path id="Vector" d="M61.9657 34.375H34.2161C32.6998 34.375 31.375 35.466 31.375 36.9645V64.7757C31.375 66.2824 32.6998 67.625 34.2161 67.625H61.9576C63.482 67.625 64.625 66.2735 64.625 64.7757V36.9645C64.6339 35.466 63.482 34.375 61.9657 34.375ZM41.6818 62.0905H36.9184V47.2802H41.6818V62.0905ZM39.4648 45.0284H39.4307C37.9062 45.0284 36.9191 43.8936 36.9191 42.473C36.9191 41.0265 37.9322 39.9184 39.4908 39.9184C41.0494 39.9184 42.0031 41.0183 42.0373 42.473C42.0365 43.8936 41.0494 45.0284 39.4648 45.0284ZM59.0905 62.0905H54.3271V53.9925C54.3271 52.0524 53.6339 50.7269 51.9106 50.7269C50.5939 50.7269 49.8146 51.6175 49.468 52.4851C49.3382 52.7968 49.3033 53.2214 49.3033 53.6548V62.0905H44.5399V47.2802H49.3033V49.3412C49.9965 48.3541 51.0793 46.9336 53.5991 46.9336C56.7259 46.9336 59.0912 48.9946 59.0912 53.4381L59.0905 62.0905Z" fill="#68A3DA"/>
</g>
</svg>
