<svg width="18" height="19" viewBox="0 0 18 19" fill="none" xmlns="http://www.w3.org/2000/svg">
<path d="M4.08328 18.0974V6.41766H0.450464V18.0974H4.08328ZM2.24734 4.85516C3.41921 4.85516 4.35671 3.8786 4.35671 2.70673C4.35671 1.57391 3.41921 0.636414 2.24734 0.636414C1.11453 0.636414 0.177027 1.57391 0.177027 2.70673C0.177027 3.8786 1.11453 4.85516 2.24734 4.85516ZM17.638 18.0974H17.677V11.6911C17.677 8.5661 16.9739 6.14423 13.302 6.14423C11.5442 6.14423 10.3723 7.12079 9.86453 8.01923H9.82546V6.41766H6.3489V18.0974H9.98171V12.3161C9.98171 10.7927 10.2552 9.34735 12.1302 9.34735C14.0052 9.34735 14.0442 11.0661 14.0442 12.4333V18.0974H17.638Z" fill="white"/>
</svg>
