<svg width="158" height="30" viewBox="0 0 158 30" fill="none" xmlns="http://www.w3.org/2000/svg">
<path d="M0.24 1.08H6.82V26H0.24V1.08ZM33.6092 1.08V26H28.7442L17.4392 11.86V26H11.3142V1.08H16.1092L27.4142 15.15V1.08H33.6092ZM38.1111 1.08H44.6911V26H38.1111V1.08ZM72.4562 6.4H65.0362V1.08H86.5262V6.4H79.1062V26H72.4562V6.4ZM89.1755 1.08H106.956V6.12H95.5805V10.81H106.221V15.85H95.5805V20.96H106.956V26H89.1755V1.08ZM122.443 26.315C119.853 26.315 117.589 25.79 115.653 24.74C113.739 23.6667 112.258 22.1617 111.208 20.225C110.181 18.2883 109.668 16.0483 109.668 13.505C109.668 10.985 110.181 8.76833 111.208 6.855C112.258 4.91833 113.739 3.425 115.653 2.375C117.589 1.30167 119.853 0.764999 122.443 0.764999C124.076 0.764999 125.651 1.01 127.168 1.5C128.708 1.99 129.944 2.655 130.878 3.495L128.883 8.15C126.853 6.68 124.753 5.945 122.583 5.945C120.576 5.945 119.036 6.58667 117.963 7.87C116.889 9.13 116.353 11.0083 116.353 13.505C116.353 16.025 116.889 17.9267 117.963 19.21C119.036 20.4933 120.576 21.135 122.583 21.135C124.753 21.135 126.853 20.4 128.883 18.93L130.878 23.585C129.944 24.425 128.708 25.09 127.168 25.58C125.651 26.07 124.076 26.315 122.443 26.315ZM157.253 1.08V26H150.813V15.92H140.733V26H134.293V1.08H140.733V10.775H150.813V1.08H157.253Z" fill="#2F2F2F"/>
<path d="M47.5403 26H64.0253V29.605H47.5403V26Z" fill="#5571FF"/>
</svg>
