<svg width="270" height="38" viewBox="0 0 270 38" fill="none" xmlns="http://www.w3.org/2000/svg">
<path d="M68.55 12.45H61.86V8.64H79.98V12.45H73.29V30H68.55V12.45ZM93.3863 22.77H83.3663C83.4463 24.19 83.8163 25.23 84.4763 25.89C85.1363 26.53 86.1163 26.85 87.4163 26.85C88.1963 26.85 88.9763 26.72 89.7563 26.46C90.5363 26.2 91.2563 25.82 91.9163 25.32L93.1163 28.38C92.3963 28.96 91.4963 29.42 90.4163 29.76C89.3563 30.08 88.2863 30.24 87.2063 30.24C84.6463 30.24 82.6363 29.54 81.1763 28.14C79.7163 26.72 78.9863 24.79 78.9863 22.35C78.9863 20.81 79.2963 19.44 79.9163 18.24C80.5563 17.02 81.4463 16.08 82.5863 15.42C83.7263 14.74 85.0163 14.4 86.4563 14.4C88.5963 14.4 90.2863 15.1 91.5263 16.5C92.7663 17.88 93.3863 19.75 93.3863 22.11V22.77ZM86.5763 17.58C85.7163 17.58 85.0163 17.83 84.4763 18.33C83.9563 18.83 83.6163 19.56 83.4563 20.52H89.4863C89.2463 18.56 88.2763 17.58 86.5763 17.58ZM103.43 30.24C100.95 30.24 99.0004 29.54 97.5804 28.14C96.1804 26.74 95.4804 24.83 95.4804 22.41C95.4804 20.83 95.8204 19.44 96.5004 18.24C97.1804 17.02 98.1304 16.08 99.3504 15.42C100.59 14.74 102.02 14.4 103.64 14.4C104.74 14.4 105.81 14.57 106.85 14.91C107.89 15.25 108.72 15.71 109.34 16.29L108.14 19.44C107.54 18.96 106.88 18.59 106.16 18.33C105.44 18.05 104.74 17.91 104.06 17.91C102.82 17.91 101.85 18.29 101.15 19.05C100.47 19.79 100.13 20.88 100.13 22.32C100.13 23.78 100.47 24.89 101.15 25.65C101.83 26.39 102.8 26.76 104.06 26.76C104.74 26.76 105.44 26.63 106.16 26.37C106.88 26.09 107.54 25.71 108.14 25.23L109.34 28.38C108.68 28.96 107.82 29.42 106.76 29.76C105.7 30.08 104.59 30.24 103.43 30.24ZM120.884 14.4C124.484 14.4 126.284 16.53 126.284 20.79V30H121.754V21C121.754 19.94 121.554 19.17 121.154 18.69C120.774 18.19 120.164 17.94 119.324 17.94C118.324 17.94 117.524 18.26 116.924 18.9C116.324 19.54 116.024 20.4 116.024 21.48V30H111.494V7.92H116.024V16.86C116.564 16.06 117.254 15.45 118.094 15.03C118.934 14.61 119.864 14.4 120.884 14.4ZM139.283 14.4C142.883 14.4 144.683 16.53 144.683 20.79V30H140.153V21C140.153 19.94 139.953 19.17 139.553 18.69C139.173 18.19 138.563 17.94 137.723 17.94C136.723 17.94 135.923 18.26 135.323 18.9C134.723 19.54 134.423 20.4 134.423 21.48V30H129.893V19.14C129.893 17.52 129.813 16.07 129.653 14.79H133.913L134.213 17.19C134.753 16.29 135.453 15.6 136.313 15.12C137.193 14.64 138.183 14.4 139.283 14.4ZM155.551 30.24C153.931 30.24 152.511 29.92 151.291 29.28C150.091 28.64 149.161 27.72 148.501 26.52C147.861 25.32 147.541 23.92 147.541 22.32C147.541 20.72 147.861 19.32 148.501 18.12C149.161 16.92 150.091 16 151.291 15.36C152.511 14.72 153.931 14.4 155.551 14.4C157.151 14.4 158.551 14.72 159.751 15.36C160.951 16 161.871 16.92 162.511 18.12C163.171 19.32 163.501 20.72 163.501 22.32C163.501 23.92 163.171 25.32 162.511 26.52C161.871 27.72 160.951 28.64 159.751 29.28C158.551 29.92 157.151 30.24 155.551 30.24ZM155.551 26.79C156.671 26.79 157.521 26.42 158.101 25.68C158.701 24.94 159.001 23.82 159.001 22.32C159.001 20.84 158.701 19.73 158.101 18.99C157.521 18.23 156.671 17.85 155.551 17.85C154.411 17.85 153.541 18.23 152.941 18.99C152.341 19.73 152.041 20.84 152.041 22.32C152.041 25.3 153.211 26.79 155.551 26.79ZM166.396 7.92H170.926V30H166.396V7.92ZM181.889 30.24C180.269 30.24 178.849 29.92 177.629 29.28C176.429 28.64 175.499 27.72 174.839 26.52C174.199 25.32 173.879 23.92 173.879 22.32C173.879 20.72 174.199 19.32 174.839 18.12C175.499 16.92 176.429 16 177.629 15.36C178.849 14.72 180.269 14.4 181.889 14.4C183.489 14.4 184.889 14.72 186.089 15.36C187.289 16 188.209 16.92 188.849 18.12C189.509 19.32 189.839 20.72 189.839 22.32C189.839 23.92 189.509 25.32 188.849 26.52C188.209 27.72 187.289 28.64 186.089 29.28C184.889 29.92 183.489 30.24 181.889 30.24ZM181.889 26.79C183.009 26.79 183.859 26.42 184.439 25.68C185.039 24.94 185.339 23.82 185.339 22.32C185.339 20.84 185.039 19.73 184.439 18.99C183.859 18.23 183.009 17.85 181.889 17.85C180.749 17.85 179.879 18.23 179.279 18.99C178.679 19.73 178.379 20.84 178.379 22.32C178.379 25.3 179.549 26.79 181.889 26.79ZM208.124 14.79V29.31C208.124 31.73 207.424 33.57 206.024 34.83C204.624 36.09 202.584 36.72 199.904 36.72C197.484 36.72 195.384 36.25 193.604 35.31L194.294 31.95C196.134 32.87 197.954 33.33 199.754 33.33C201.054 33.33 202.024 33.02 202.664 32.4C203.304 31.8 203.624 30.88 203.624 29.64V27C203.144 27.74 202.474 28.36 201.614 28.86C200.754 29.34 199.804 29.58 198.764 29.58C197.444 29.58 196.274 29.27 195.254 28.65C194.234 28.01 193.434 27.12 192.854 25.98C192.274 24.82 191.984 23.49 191.984 21.99C191.984 20.49 192.274 19.17 192.854 18.03C193.434 16.87 194.234 15.98 195.254 15.36C196.274 14.72 197.444 14.4 198.764 14.4C199.824 14.4 200.784 14.63 201.644 15.09C202.504 15.55 203.164 16.17 203.624 16.95V14.79H208.124ZM200.084 26.13C201.184 26.13 202.044 25.77 202.664 25.05C203.304 24.31 203.624 23.29 203.624 21.99C203.624 20.71 203.314 19.71 202.694 18.99C202.074 18.25 201.204 17.88 200.084 17.88C198.964 17.88 198.084 18.25 197.444 18.99C196.804 19.71 196.484 20.71 196.484 21.99C196.484 23.27 196.804 24.28 197.444 25.02C198.084 25.76 198.964 26.13 200.084 26.13ZM226.748 14.79L219.728 30.81C218.868 32.75 217.778 34.17 216.458 35.07C215.158 35.99 213.558 36.58 211.658 36.84L210.608 33.36C212.008 33.06 213.058 32.68 213.758 32.22C214.478 31.76 215.038 31.09 215.438 30.21L215.888 29.22L209.618 14.79H214.358L218.258 24.66L222.278 14.79H226.748ZM235.149 30.24C232.669 30.24 230.719 29.54 229.299 28.14C227.899 26.74 227.199 24.83 227.199 22.41C227.199 20.83 227.539 19.44 228.219 18.24C228.899 17.02 229.849 16.08 231.069 15.42C232.309 14.74 233.739 14.4 235.359 14.4C236.459 14.4 237.529 14.57 238.569 14.91C239.609 15.25 240.439 15.71 241.059 16.29L239.859 19.44C239.259 18.96 238.599 18.59 237.879 18.33C237.159 18.05 236.459 17.91 235.779 17.91C234.539 17.91 233.569 18.29 232.869 19.05C232.189 19.79 231.849 20.88 231.849 22.32C231.849 23.78 232.189 24.89 232.869 25.65C233.549 26.39 234.519 26.76 235.779 26.76C236.459 26.76 237.159 26.63 237.879 26.37C238.599 26.09 239.259 25.71 239.859 25.23L241.059 28.38C240.399 28.96 239.539 29.42 238.479 29.76C237.419 30.08 236.309 30.24 235.149 30.24ZM258.453 14.79V30H253.983V27.75C253.523 28.53 252.873 29.14 252.033 29.58C251.193 30.02 250.243 30.24 249.183 30.24C247.863 30.24 246.693 29.92 245.673 29.28C244.673 28.64 243.883 27.73 243.303 26.55C242.743 25.35 242.463 23.97 242.463 22.41C242.463 20.85 242.743 19.46 243.303 18.24C243.883 17.02 244.683 16.08 245.703 15.42C246.723 14.74 247.883 14.4 249.183 14.4C250.243 14.4 251.193 14.63 252.033 15.09C252.873 15.55 253.523 16.17 253.983 16.95V14.79H258.453ZM250.503 26.79C251.623 26.79 252.483 26.41 253.083 25.65C253.683 24.89 253.983 23.79 253.983 22.35C253.983 20.91 253.683 19.81 253.083 19.05C252.483 18.27 251.623 17.88 250.503 17.88C249.383 17.88 248.513 18.28 247.893 19.08C247.273 19.88 246.963 20.99 246.963 22.41C246.963 23.83 247.263 24.92 247.863 25.68C248.483 26.42 249.363 26.79 250.503 26.79ZM262.109 7.92H266.639V30H262.109V7.92Z" fill="#2F2F2F"/>
<circle cx="13.5" cy="18" r="13" fill="#5956E9"/>
<circle cx="26.5" cy="18" r="13" fill="#38D4FF" style="mix-blend-mode:multiply"/>
<circle cx="40.5" cy="18" r="13" fill="#E541ED" style="mix-blend-mode:multiply"/>
</svg>
