<svg width="21" height="17" viewBox="0 0 21 17" fill="none" xmlns="http://www.w3.org/2000/svg">
<path d="M18.1411 4.53485C18.9224 3.94891 19.6255 3.24579 20.1724 2.42548C19.4693 2.73798 18.649 2.97235 17.8286 3.05048C18.688 2.54266 19.313 1.76141 19.6255 0.784851C18.8443 1.2536 17.9458 1.60516 17.0474 1.80048C16.2661 0.980164 15.2115 0.511414 14.0396 0.511414C11.774 0.511414 9.93801 2.34735 9.93801 4.61298C9.93801 4.92548 9.97708 5.23798 10.0552 5.55048C6.65676 5.35516 3.60989 3.71454 1.57864 1.2536C1.22708 1.83954 1.03176 2.54266 1.03176 3.32391C1.03176 4.73016 1.73489 5.98016 2.8677 6.72235C2.20364 6.68329 1.53958 6.52704 0.992702 6.21454V6.2536C0.992702 8.24579 2.39895 9.88641 4.27395 10.277C3.96145 10.3552 3.57083 10.4333 3.21926 10.4333C2.94583 10.4333 2.71145 10.3942 2.43801 10.3552C2.94583 11.9958 4.46926 13.1677 6.26614 13.2067C4.85989 14.3005 3.10208 14.9645 1.18801 14.9645C0.836452 14.9645 0.523952 14.9255 0.211452 14.8864C2.00833 16.0583 4.15676 16.7224 6.50051 16.7224C14.0396 16.7224 18.1411 10.5114 18.1411 5.08173C18.1411 4.88641 18.1411 4.73016 18.1411 4.53485Z" fill="white"/>
</svg>
