<svg width="175" height="27" viewBox="0 0 175 27" fill="none" xmlns="http://www.w3.org/2000/svg">
<path d="M11.195 26.315C7.555 26.315 4.80167 25.405 2.935 23.585C1.06833 21.7417 0.135 19.0467 0.135 15.5V1.08H6.54V15.745C6.54 17.5417 6.93667 18.9183 7.73 19.875C8.54667 20.8317 9.70167 21.31 11.195 21.31C12.665 21.31 13.7967 20.8317 14.59 19.875C15.3833 18.895 15.78 17.5183 15.78 15.745V1.08H22.255V15.5C22.255 19 21.2983 21.6833 19.385 23.55C17.495 25.3933 14.765 26.315 11.195 26.315ZM48.8534 7.73C50.9067 7.73 52.4234 8.36 53.4034 9.62C54.4067 10.88 54.9084 12.805 54.9084 15.395V26H48.5734V15.57C48.5734 14.52 48.41 13.7617 48.0834 13.295C47.78 12.8283 47.255 12.595 46.5084 12.595C45.6217 12.595 44.9334 12.9217 44.4434 13.575C43.9534 14.2283 43.7084 15.15 43.7084 16.34V26H37.3734V15.57C37.3734 14.52 37.21 13.7617 36.8834 13.295C36.5567 12.8283 36.0317 12.595 35.3084 12.595C34.4217 12.595 33.7334 12.9217 33.2434 13.575C32.7767 14.2283 32.5434 15.15 32.5434 16.34V26H26.2084V13.33C26.2084 11.4167 26.115 9.71333 25.9284 8.22H31.8784L32.1934 10.705C32.73 9.74833 33.4767 9.01333 34.4334 8.5C35.4134 7.98667 36.5334 7.73 37.7934 7.73C40.3367 7.73 42.0634 8.80333 42.9734 10.95C43.6034 9.97 44.4317 9.18833 45.4584 8.605C46.5084 8.02167 47.64 7.73 48.8534 7.73ZM70.3015 7.73C71.8415 7.73 73.2065 8.115 74.3965 8.885C75.5865 9.63167 76.5082 10.705 77.1615 12.105C77.8382 13.505 78.1765 15.115 78.1765 16.935C78.1765 18.7783 77.8382 20.4117 77.1615 21.835C76.4849 23.235 75.5515 24.3317 74.3615 25.125C73.1715 25.895 71.8182 26.28 70.3015 26.28C69.1115 26.28 68.0265 26.0467 67.0465 25.58C66.0665 25.09 65.3315 24.425 64.8415 23.585V26H58.5765V0.239998H64.9115V10.355C65.4249 9.56167 66.1599 8.93167 67.1165 8.465C68.0732 7.975 69.1349 7.73 70.3015 7.73ZM68.3765 21.555C69.4965 21.555 70.3482 21.1583 70.9315 20.365C71.5382 19.5717 71.8415 18.4283 71.8415 16.935C71.8415 15.5117 71.5499 14.4267 70.9665 13.68C70.3832 12.91 69.5199 12.525 68.3765 12.525C67.2332 12.525 66.3582 12.91 65.7515 13.68C65.1449 14.45 64.8415 15.5583 64.8415 17.005C64.8415 18.4983 65.1449 19.63 65.7515 20.4C66.3582 21.17 67.2332 21.555 68.3765 21.555ZM92.3701 7.8C93.2335 7.8 93.8985 7.92833 94.3651 8.185V13.96C93.3618 13.4933 92.3935 13.26 91.4601 13.26C88.8001 13.26 87.4701 14.5317 87.4701 17.075V26H81.1351V13.33C81.1351 11.4167 81.0418 9.71333 80.8551 8.22H86.8051L87.1901 11.195C87.6101 10.0983 88.2868 9.25833 89.2201 8.675C90.1535 8.09167 91.2035 7.8 92.3701 7.8ZM112.247 17.74H101.082C101.199 19.1167 101.596 20.1083 102.272 20.715C102.949 21.3217 103.941 21.625 105.247 21.625C106.134 21.625 107.021 21.485 107.907 21.205C108.794 20.9017 109.599 20.4933 110.322 19.98L111.932 24.18C111.046 24.8333 109.972 25.3467 108.712 25.72C107.452 26.0933 106.192 26.28 104.932 26.28C102.902 26.28 101.141 25.9067 99.6474 25.16C98.154 24.4133 97.0107 23.3517 96.2174 21.975C95.424 20.575 95.0274 18.93 95.0274 17.04C95.0274 15.2433 95.4007 13.645 96.1474 12.245C96.9174 10.8217 97.9674 9.71333 99.2974 8.92C100.651 8.12667 102.191 7.73 103.917 7.73C105.597 7.73 107.067 8.10333 108.327 8.85C109.587 9.59667 110.556 10.67 111.232 12.07C111.909 13.4467 112.247 15.0567 112.247 16.9V17.74ZM104.092 12.07C102.529 12.07 101.549 12.98 101.152 14.8H106.822C106.589 12.98 105.679 12.07 104.092 12.07Z" fill="#FF6565"/>
<path d="M115.528 1.08H122.108V20.68H132.643V26H115.528V1.08ZM135.797 1.08H142.377V20.68H152.912V26H135.797V1.08ZM174.44 8.22V26H168.21V23.585C167.697 24.425 166.95 25.09 165.97 25.58C164.99 26.0467 163.917 26.28 162.75 26.28C161.234 26.28 159.88 25.9067 158.69 25.16C157.5 24.4133 156.567 23.3517 155.89 21.975C155.237 20.575 154.91 18.965 154.91 17.145C154.91 15.3017 155.249 13.6683 155.925 12.245C156.602 10.8217 157.535 9.71333 158.725 8.92C159.915 8.12667 161.257 7.73 162.75 7.73C163.917 7.73 164.979 7.98667 165.935 8.5C166.915 8.99 167.674 9.655 168.21 10.495V8.22H174.44ZM164.71 21.555C165.83 21.555 166.694 21.17 167.3 20.4C167.907 19.63 168.21 18.5217 168.21 17.075C168.21 15.605 167.907 14.485 167.3 13.715C166.694 12.9217 165.83 12.525 164.71 12.525C163.614 12.525 162.75 12.9333 162.12 13.75C161.49 14.5433 161.175 15.675 161.175 17.145C161.175 18.5683 161.479 19.665 162.085 20.435C162.692 21.1817 163.567 21.555 164.71 21.555Z" fill="#7C3EFF"/>
</svg>
